<?xml version="1.0" encoding="UTF-8"?>
<svg version="1.1" xmlns="http://www.w3.org/2000/svg" width="1536" height="396">
<path d="M0 0 C1.28006243 -0.00445784 2.56012486 -0.00891569 3.87897706 -0.01350862 C5.30772925 -0.01341932 6.73648144 -0.01322946 8.16523361 -0.01294994 C9.67663663 -0.01624846 11.18803876 -0.01997401 12.69943976 -0.02409142 C16.86352634 -0.03412077 21.0275985 -0.03782971 25.19169545 -0.04048073 C29.67853233 -0.04438097 34.16535776 -0.05395945 38.65218735 -0.0626936 C49.4927376 -0.08246517 60.33328879 -0.09252476 71.17385256 -0.10142139 C76.27646675 -0.10580285 81.3790799 -0.11117 86.48169327 -0.11641026 C103.43949925 -0.13342266 120.39730459 -0.14791769 137.3551178 -0.155159 C141.75672786 -0.15706895 146.15833792 -0.15898927 150.55994797 -0.16094494 C151.65397091 -0.16142868 152.74799385 -0.16191242 153.87516901 -0.16241082 C171.60473041 -0.17071431 189.33422442 -0.19605656 207.06375638 -0.22852562 C225.25821618 -0.26157503 243.4526417 -0.27960581 261.64713168 -0.28280324 C271.86596909 -0.28497022 282.08470819 -0.29374642 292.30351639 -0.31926441 C301.00476968 -0.34094243 309.70590078 -0.34903611 318.40717801 -0.33929763 C322.84754587 -0.33474461 327.28766146 -0.33669723 331.72799492 -0.35605907 C335.7931482 -0.37363208 339.8578641 -0.37274103 343.92302164 -0.35716178 C345.39344239 -0.35477677 346.86389295 -0.35915548 348.334268 -0.37099043 C357.29931261 -0.43867853 363.0005814 -0.2353427 369.84461594 5.84515858 C370.30223312 6.3942992 370.75985031 6.94343983 371.23133469 7.50922108 C371.93709641 8.32519764 371.93709641 8.32519764 372.65711594 9.15765858 C376.41850541 15.05011392 376.194436 21.08505029 376.14588547 27.8212328 C376.14617752 28.88524815 376.14646957 29.9492635 376.14677048 31.04552174 C376.14538055 34.55173452 376.12983495 38.05773306 376.11414719 41.56390858 C376.11041587 43.99913892 376.10756946 46.43437077 376.10557175 48.86960316 C376.09794469 55.27126701 376.07830405 61.67283974 376.05616379 68.07446766 C376.03568545 74.60999793 376.02656577 81.14554295 376.01649094 87.68109608 C375.99505738 100.49884322 375.96131835 113.3165273 375.91883469 126.13422108 C375.25883469 126.13422108 374.59883469 126.13422108 373.91883469 126.13422108 C373.79508469 125.45359608 373.67133469 124.77297108 373.54383469 124.07172108 C369.4090366 104.63817006 358.42383973 89.68362032 342.41883469 78.13422108 C314.30460046 60.04864356 283.40108381 55.9889307 250.91883469 62.13422108 C225.74121425 67.69069253 200.12227221 78.43239008 178.91883469 93.13422108 C177.97427414 93.77182362 177.97427414 93.77182362 177.01063156 94.42230701 C168.25357126 100.334743 160.06254863 106.43625569 152.43445969 113.75922108 C149.91883469 116.13422108 149.91883469 116.13422108 147.28992844 118.22797108 C144.45587894 120.50641614 142.26140833 123.00818582 139.91883469 125.77484608 C138.52990409 127.41335014 137.11073037 129.02650292 135.66883469 130.61859608 C110.50237307 159.17285061 102.14955798 192.97738395 100.91883469 230.13422108 C30.97057217 230.61085773 30.97057217 230.61085773 10.91883469 218.13422108 C11.17524288 220.53239187 11.44838309 222.92665836 11.73133469 225.32172108 C11.80158859 225.99525623 11.8718425 226.66879139 11.94422531 227.3627367 C12.63622642 233.03714579 14.05615324 236.55094184 18.41883469 240.25922108 C36.04846325 249.70366495 60.31903095 247.49644259 79.66883469 247.75922108 C82.03473255 247.79752207 84.40061829 247.83658017 86.76649094 247.87640858 C92.48382892 247.97104482 98.20124369 248.05644851 103.91883469 248.13422108 C104.24714279 249.08393787 104.5754509 250.03365467 104.91370773 251.01215076 C105.35659703 252.27687834 105.79972496 253.54152237 106.24305344 254.80609608 C106.67448654 256.04456287 107.10591965 257.28302967 107.55042648 258.55902576 C116.72461072 282.52811658 138.45557055 297.99794936 161.00086594 308.09515858 C172.52029102 313.01728276 184.72255078 316.35901875 196.91883469 319.13422108 C196.91883469 319.79422108 196.91883469 320.45422108 196.91883469 321.13422108 C159.06672058 332.09502476 119.86333559 334.92765804 80.66883469 331.94672108 C79.80165817 331.881422 78.93448166 331.81612293 78.04102707 331.7488451 C57.18133439 330.14263827 36.94904858 326.76201379 16.60633469 321.82172108 C15.58314133 321.57454334 14.55994797 321.32736561 13.50574875 321.07269764 C5.69565528 319.07702794 -1.90828058 316.56731203 -9.54674149 314.00067616 C-10.65782021 313.62875393 -11.76889893 313.2568317 -12.9136467 312.87363911 C-15.63663294 311.96192149 -18.35912066 311.04874528 -21.08116531 310.13422108 C-21.21852602 272.57882058 -21.32423724 235.02345795 -21.38755729 197.46785704 C-21.39506145 193.03315831 -21.40282739 188.59846008 -21.41075516 184.16376209 C-21.41232902 183.28090091 -21.41390288 182.39803974 -21.41552444 181.48842519 C-21.4416258 167.19693831 -21.48892965 152.90559639 -21.54408209 138.61419547 C-21.60020952 123.94773011 -21.63352187 109.28134061 -21.64569628 94.61477226 C-21.65392527 85.56607582 -21.67990663 76.51778909 -21.72866412 67.46921878 C-21.76040253 61.26259219 -21.76996081 55.05617711 -21.76217358 48.84947527 C-21.75833392 45.26943329 -21.76418061 41.69010676 -21.79639816 38.1101923 C-21.83111153 34.22447075 -21.81906918 30.33967591 -21.80269241 26.45381641 C-21.82016946 25.32831129 -21.83764651 24.20280617 -21.85565317 23.04319483 C-21.77056984 15.57202246 -20.1144655 10.73863348 -15.08116531 5.13422108 C-10.39655944 1.07600556 -6.10150087 0.00983216 0 0 Z M90.91883469 284.13422108 C89.69048144 286.37521676 88.48653973 288.62435888 87.29383469 290.88422108 C86.94320969 291.51843983 86.59258469 292.15265858 86.23133469 292.80609608 C84.2386045 296.4572027 84.2386045 296.4572027 84.55945969 300.44281483 C86.46774247 302.81720116 88.35361651 304.48515225 90.91883469 306.13422108 C92.96860262 306.15377239 92.96860262 306.15377239 94.91883469 305.13422108 C96.57014328 303.01938082 96.57014328 303.01938082 97.79383469 300.38422108 C98.24500656 299.52312733 98.69617844 298.66203358 99.16102219 297.77484608 C100.12306514 294.4225727 99.55741418 293.15814505 97.91883469 290.13422108 C96.40750928 287.90114091 94.7700524 286.12428012 92.91883469 284.13422108 C92.25883469 284.13422108 91.59883469 284.13422108 90.91883469 284.13422108 Z " fill="#FFFFFF" transform="translate(1160.0811653137207,-0.13422107696533203)"/>
<path d="M0 0 C4.79558377 4.61276093 8.65458905 9.41653455 12.0625 15.125 C12.58457031 15.99253906 13.10664062 16.86007813 13.64453125 17.75390625 C26.33258506 40.84937635 26.21060873 69.25286576 19.0625 94.125 C11.29325549 120.72074146 -1.21259338 144.55584912 -20.9375 164.125 C-21.44506836 164.6298291 -21.95263672 165.1346582 -22.47558594 165.65478516 C-30.97494595 174.00667993 -40.21194912 181.2568545 -49.9375 188.125 C-50.49985352 188.52283691 -51.06220703 188.92067383 -51.64160156 189.33056641 C-69.30146022 201.63911442 -89.02709247 210.49691095 -109.09765625 218.05273438 C-111.70984083 219.03904066 -114.30845316 220.05468628 -116.90625 221.078125 C-124.68583008 224.07951658 -131.52120423 226.20817835 -139.9375 225.125 C-140.59379395 225.04572266 -141.25008789 224.96644531 -141.92626953 224.88476562 C-175.95641754 220.63005415 -211.25841498 209.44389235 -234.15625 182.51953125 C-239.16839012 175.78172008 -244.9375 167.73974973 -244.9375 159.125 C-243.9172876 159.00495605 -242.8970752 158.88491211 -241.84594727 158.76123047 C-214.31054051 155.48658459 -187.92685307 151.20798206 -161.9375 141.125 C-161.2662207 140.8671875 -160.59494141 140.609375 -159.90332031 140.34375 C-145.12869357 134.59265353 -130.61967713 126.55600564 -122.9375 112.125 C-121.74827482 109.16764379 -120.76671044 106.20180715 -119.9375 103.125 C-120.64712891 104.10339844 -120.64712891 104.10339844 -121.37109375 105.1015625 C-139.50634038 129.06978319 -176.52169101 134.68875062 -204.49365234 138.62548828 C-219.33575599 140.56577681 -233.97420686 141.59044806 -248.9375 141.125 C-249.9836862 110.43687154 -240.08691213 81.11679221 -220.9375 57.125 C-220.24527344 56.21363281 -219.55304688 55.30226563 -218.83984375 54.36328125 C-207.76015712 40.17714043 -194.54260909 28.53539397 -179.9375 18.125 C-179.30875977 17.67286133 -178.68001953 17.22072266 -178.03222656 16.75488281 C-131.35953957 -16.51894667 -48.90507142 -42.39325484 0 0 Z M-86.9375 43.125 C-88.16585325 45.36599569 -89.36979495 47.6151378 -90.5625 49.875 C-90.913125 50.50921875 -91.26375 51.1434375 -91.625 51.796875 C-93.60074039 55.41638797 -93.60074039 55.41638797 -93.34375 59.375 C-91.91064141 61.15842402 -90.46629894 62.79310536 -88.8125 64.375 C-87.86375 65.2825 -86.915 66.19 -85.9375 67.125 C-81.68564503 65.60648037 -80.03321311 63.02736234 -77.9375 59.125 C-76.87107131 56.31982887 -76.41193976 54.10133063 -76.9375 51.125 C-78.85341733 47.9976252 -81.05622399 45.40096592 -83.9375 43.125 C-84.9275 43.125 -85.9175 43.125 -86.9375 43.125 Z M-61.9375 43.125 C-65.15031482 48.33197575 -67.13711464 53.27374758 -68.9375 59.125 C-66.2975 61.765 -63.6575 64.405 -60.9375 67.125 C-56.55114256 64.93182128 -55.42493095 63.21149371 -52.9375 59.125 C-52.47859375 59.53492188 -52.0196875 59.94484375 -51.546875 60.3671875 C-50.93328125 60.90601563 -50.3196875 61.44484375 -49.6875 62 C-49.08421875 62.53367187 -48.4809375 63.06734375 -47.859375 63.6171875 C-45.96331254 65.1047487 -44.12459995 66.12822436 -41.9375 67.125 C-37.78008032 63.70997669 -35.04265867 59.3917718 -33.9375 54.125 C-34.86033719 49.9578133 -37.00656677 47.08502489 -39.9375 44.0625 C-41.87204158 42.94788929 -41.87204158 42.94788929 -43.921875 43.3203125 C-46.58104462 44.38191898 -47.01618945 45.49212407 -48.1875 48.0625 C-48.69023438 49.12791016 -48.69023438 49.12791016 -49.203125 50.21484375 C-50.05711706 52.09505473 -50.05711706 52.09505473 -49.9375 54.125 C-50.5975 54.125 -51.2575 54.125 -51.9375 54.125 C-51.97875 53.42375 -52.02 52.7225 -52.0625 52 C-53.25847767 48.0703591 -55.6192802 45.52699493 -58.9375 43.125 C-59.9275 43.125 -60.9175 43.125 -61.9375 43.125 Z M-20.9375 43.125 C-21.92164433 45.03911557 -22.89963349 46.9563967 -23.875 48.875 C-24.69291016 50.47601563 -24.69291016 50.47601563 -25.52734375 52.109375 C-27.22578471 55.49790344 -27.22578471 55.49790344 -27.9375 59.125 C-26.63732062 61.10772365 -26.63732062 61.10772365 -24.6875 62.8125 C-24.06359375 63.41449219 -23.4396875 64.01648438 -22.796875 64.63671875 C-20.90260227 66.32882463 -20.90260227 66.32882463 -17.9375 67.125 C-13.5885644 62.98885636 -10.94109455 59.47324887 -10.63671875 53.34375 C-11.15558323 49.51628216 -12.9454631 46.5533198 -15.9375 44.125 C-18.53820307 43.40207091 -18.53820307 43.40207091 -20.9375 43.125 Z M-14.9375 86.125 C-20.55001172 95.96611645 -23.42187811 104.91936923 -24.9375 116.125 C-25.18693359 117.887229 -25.18693359 117.887229 -25.44140625 119.68505859 C-26.38092652 126.33150752 -27.29504864 132.98118309 -28.16796875 139.63671875 C-28.31645264 140.76553467 -28.46493652 141.89435059 -28.61791992 143.05737305 C-28.90135209 145.77801875 -29.00023197 148.39313424 -28.9375 151.125 C-23.21158377 144.54019634 -21.24710119 136.27628552 -19.9375 127.875 C-19.77797852 126.91005615 -19.61845703 125.9451123 -19.45410156 124.95092773 C-17.36582658 112.04779007 -15.65063399 99.08229722 -13.9375 86.125 C-14.2675 86.125 -14.5975 86.125 -14.9375 86.125 Z M-96.9375 88.125 C-103.35595355 106.23873847 -110.92223971 129.19476794 -103.9375 148.125 C-101.41797671 152.98408063 -99.12196809 155.29518773 -93.9375 157.125 C-87.20003724 157.87360697 -81.85762516 156.29064306 -76.48828125 152.30859375 C-70.22990015 146.95111284 -65.51052685 140.94028518 -60.9375 134.125 C-60.36902344 133.30386719 -59.80054688 132.48273438 -59.21484375 131.63671875 C-56.44649935 127.5896305 -53.99264214 123.57780797 -51.9375 119.125 C-54.98663228 118.11388907 -54.98663228 118.11388907 -57.9375 119.125 C-63.92151164 120.14974618 -69.88326468 120.22109897 -75.9375 120.125 C-74.9375 117.125 -74.9375 117.125 -72.3203125 115.5546875 C-71.24523438 115.04164063 -70.17015625 114.52859375 -69.0625 114 C-67.99257812 113.48179687 -66.92265625 112.96359375 -65.8203125 112.4296875 C-61.9705665 110.68739053 -59.0694667 109.96838709 -54.875 109.9375 C-53.55822266 109.91623047 -53.55822266 109.91623047 -52.21484375 109.89453125 C-49.9375 110.125 -49.9375 110.125 -47.9375 112.125 C-45.08760169 112.50484044 -45.08760169 112.50484044 -41.9375 111.125 C-37.17368911 106.48003678 -34.18575815 101.64368143 -32.9375 95.125 C-34.0821875 96.300625 -34.0821875 96.300625 -35.25 97.5 C-37.9375 100.125 -37.9375 100.125 -40.9375 102.125 C-44.45474138 101.60775862 -44.45474138 101.60775862 -45.9375 100.125 C-58.36168234 99.90703189 -70.20746141 107.69167683 -79.01953125 115.8515625 C-81.24412174 118.4884498 -82.66964933 120.91535811 -83.9375 124.125 C-83.56216591 126.26830191 -83.56216591 126.26830191 -82.9375 128.125 C-79.99993881 128.1519501 -77.06262445 128.17181474 -74.125 128.1875 C-72.87493164 128.20006836 -72.87493164 128.20006836 -71.59960938 128.21289062 C-70.39594727 128.21772461 -70.39594727 128.21772461 -69.16796875 128.22265625 C-68.06038208 128.23051147 -68.06038208 128.23051147 -66.93041992 128.23852539 C-64.72692591 128.20023213 -64.72692591 128.20023213 -61.9375 127.125 C-63.46088006 131.39046416 -66.07112139 132.94576842 -69.9375 135.125 C-77.02301083 138.2548779 -83.79941104 139.5303887 -91.25 137 C-95.28783513 134.18290572 -97.39168548 131.12631989 -98.6875 126.375 C-99.39688764 117.15296066 -98.40827362 108.54637371 -96.91601562 99.453125 C-96.77744141 98.56367188 -96.63886719 97.67421875 -96.49609375 96.7578125 C-96.36517334 95.96262207 -96.23425293 95.16743164 -96.09936523 94.34814453 C-95.930378 92.0271826 -96.2467377 90.33379993 -96.9375 88.125 Z " fill="#FFFFFF" transform="translate(1511.9375,87.875)"/>
<path d="M0 0 C0.06974168 7.94559651 0.12293312 15.89106351 0.15543652 23.83689117 C0.17104246 27.52711355 0.19218682 31.21712535 0.22631836 34.90722656 C0.25909442 38.47340442 0.27689109 42.03938068 0.28463173 45.60569763 C0.29281099 47.61744847 0.31620093 49.62911907 0.33988953 51.64074707 C0.34133839 59.57380984 0.25076289 66.23688862 -5.15625 72.49609375 C-5.9296875 73.13675781 -6.703125 73.77742188 -7.5 74.4375 C-8.2734375 75.09621094 -9.046875 75.75492187 -9.84375 76.43359375 C-13.55518521 79.12976317 -16.62150584 79.12703563 -21.078372 79.13422108 C-22.35781773 79.13867892 -23.63726346 79.14313676 -24.95548028 79.14772969 C-26.38354346 79.14764039 -27.81160664 79.14745053 -29.2396698 79.14717102 C-30.75036012 79.15046955 -32.26104956 79.15419509 -33.77173787 79.1583125 C-37.93389384 79.16834189 -42.09603538 79.1720508 -46.25820172 79.17470181 C-50.74301272 79.17860207 -55.22781227 79.18818059 -59.71261597 79.19691467 C-70.54872212 79.21668682 -81.38482922 79.22674619 -92.2209489 79.23564246 C-97.32193991 79.24002408 -102.42292988 79.24539122 -107.52392006 79.25063133 C-124.47743483 79.26764427 -141.43094894 79.28213895 -158.38447094 79.28938007 C-162.78504118 79.29129002 -167.18561142 79.29321034 -171.58618164 79.29516602 C-172.67994227 79.29564976 -173.77370291 79.2961335 -174.9006078 79.2966319 C-192.62302714 79.30493408 -210.34537902 79.3302739 -228.06776889 79.36274669 C-246.25658346 79.39580284 -264.44536373 79.41382752 -282.6342085 79.41702431 C-292.84916542 79.41919074 -303.06402397 79.42795874 -313.27895164 79.45348549 C-321.97761451 79.47517273 -330.67615512 79.48325264 -339.37484195 79.47351871 C-343.8133085 79.46896829 -348.25152268 79.47090324 -352.68995476 79.49028015 C-356.75454347 79.50787177 -360.81869497 79.50694685 -364.88328806 79.49138286 C-366.35238072 79.48900068 -367.82150334 79.49336197 -369.29055014 79.50521151 C-377.27017821 79.56558079 -383.22890438 79.44261362 -390 75 C-392.05859375 72.9296875 -392.05859375 72.9296875 -393.4375 70.875 C-393.91058594 70.19179688 -394.38367187 69.50859375 -394.87109375 68.8046875 C-396.84361909 65.6513771 -397.12266763 63.80305604 -397.11352539 60.09130859 C-397.11344986 59.07040131 -397.11337433 58.04949402 -397.11329651 56.99765015 C-397.10813522 55.89240997 -397.10297394 54.7871698 -397.09765625 53.6484375 C-397.0962413 52.5192691 -397.09482635 51.39010071 -397.09336853 50.22671509 C-397.08775744 46.60945012 -397.07520303 42.99224636 -397.0625 39.375 C-397.05748643 36.92708423 -397.05292328 34.47916748 -397.04882812 32.03125 C-397.0377844 26.02081234 -397.02103544 20.01041054 -397 14 C-395.27416423 14.43176026 -393.54832873 14.86352163 -391.82249451 15.29528809 C-390.34972401 15.66352425 -388.87687331 16.03143976 -387.40394592 16.39904785 C-384.30677575 17.1721003 -381.21013348 17.94647913 -378.11669922 18.734375 C-366.571491 21.66351097 -354.99218847 23.7242863 -343.1875 25.25 C-341.93767334 25.41306641 -340.68784668 25.57613281 -339.40014648 25.74414062 C-323.82813065 27.65919196 -308.30122648 28.20906317 -292.625 28.1875 C-291.80295074 28.18689575 -290.98090149 28.1862915 -290.13394165 28.18566895 C-266.77735728 28.13945009 -243.97559334 26.30068433 -221 22 C-220.0311084 21.82098145 -219.0622168 21.64196289 -218.06396484 21.45751953 C-201.65533519 18.3561751 -184.43998193 14.41158287 -169.5234375 6.70703125 C-164.09484659 4.2528383 -159.28380213 5.05573494 -153.5 5.75 C-105.83522842 10.23655781 -57.44008177 6.14769772 -10.03662109 0.65673828 C-6.65235467 0.26494833 -3.41400708 0 0 0 Z " fill="#FFFFFF" transform="translate(1536,317)"/>
<path d="M0 0 C-1.5391801 3.66752005 -3.75485452 5.98580573 -6.5703125 8.765625 C-7.91416016 10.09980469 -7.91416016 10.09980469 -9.28515625 11.4609375 C-10.22230469 12.38132812 -11.15945313 13.30171875 -12.125 14.25 C-13.07988637 15.19484856 -14.03431859 16.14015633 -14.98828125 17.0859375 C-17.32109087 19.39518338 -19.65844086 21.69963203 -22 24 C-20.99211426 24.01458252 -19.98422852 24.02916504 -18.94580078 24.04418945 C-15.16209613 24.10270505 -11.37895394 24.17992807 -7.59570312 24.26245117 C-5.96656508 24.29545249 -4.33731949 24.32355935 -2.70800781 24.34643555 C21.61658315 24.6971275 21.61658315 24.6971275 31 34 C38.62310591 43.45265133 39.33099823 51.79865076 39.390625 63.58984375 C39.53320188 69.68104471 39.90491245 73.37010624 44 78 C48.87198578 81.15246138 55.57854627 80.70085644 61.09765625 79.5703125 C64.67398843 78.34023646 65.91419278 77.16396472 67.66537476 73.81771851 C69.1040096 70.16918711 69.38973849 66.91578675 69.41650391 62.97900391 C69.42938194 61.98501587 69.42938194 61.98501587 69.44252014 60.97094727 C69.46738122 58.80604107 69.47193942 56.6415978 69.4765625 54.4765625 C69.49088555 52.96437193 69.5066449 51.45219435 69.52377319 49.94003296 C69.56546099 45.97852134 69.59057299 42.01709035 69.61126709 38.05541992 C69.64721349 31.6937059 69.70794193 25.33218993 69.76975632 18.97068405 C69.78888154 16.74759731 69.80058151 14.52456397 69.81118774 12.30142212 C69.82139266 10.94915649 69.83174997 9.596892 69.84228516 8.24462891 C69.84878082 7.05995026 69.85527649 5.87527161 69.86196899 4.6546936 C70 2 70 2 71 1 C73.6773138 0.90018786 76.32304175 0.86120125 79 0.875 C79.75023437 0.87113281 80.50046875 0.86726563 81.2734375 0.86328125 C86.87338947 0.87338947 86.87338947 0.87338947 88 2 C88.11013624 4.15532705 88.14914221 6.31430624 88.16113281 8.47241211 C88.16609772 9.14899872 88.17106262 9.82558533 88.17617798 10.52267456 C88.19084845 12.77424117 88.1976137 15.02573707 88.203125 17.27734375 C88.20887753 18.8437958 88.21463525 20.41024782 88.22039795 21.97669983 C88.23092525 25.27133513 88.2367549 28.56594594 88.24023438 31.8605957 C88.24568778 36.06012344 88.26963998 40.25932178 88.29820633 44.45874691 C88.31694655 47.70092163 88.32204457 50.94301933 88.32357025 54.18524361 C88.32657756 55.73163188 88.33454033 57.27801944 88.34775543 58.82435417 C88.4359056 69.94346148 88.14049939 80.18261365 80.80078125 89.1796875 C74.10635478 95.94672163 66.38990397 99.18087964 56.8972168 99.37963867 C56.18863525 99.37810791 55.48005371 99.37657715 54.75 99.375 C54.00854736 99.37411377 53.26709473 99.37322754 52.50317383 99.37231445 C45.34118212 99.21917081 38.61140252 97.80522737 32.84765625 93.328125 C32.23792969 92.88984375 31.62820313 92.4515625 31 92 C28.5908295 92.50886646 28.5908295 92.50886646 26 94 C24.64763157 94.69103057 23.29333412 95.37829429 21.9375 96.0625 C20.96103516 96.57490234 20.96103516 96.57490234 19.96484375 97.09765625 C15.57438767 99.1139492 11.32801597 99.15862727 6.56030273 99.17700195 C5.44476265 99.18685875 5.44476265 99.18685875 4.3066864 99.19691467 C1.8489877 99.21659854 -0.60864988 99.22830238 -3.06640625 99.23828125 C-4.33111913 99.24439454 -4.33111913 99.24439454 -5.62138176 99.25063133 C-10.08848702 99.27147615 -14.55556175 99.28578192 -19.02270508 99.29516602 C-23.61335451 99.30619709 -28.20351478 99.34056304 -32.79399204 99.38033772 C-36.34330581 99.40662098 -39.89250538 99.41486842 -43.44190788 99.41844749 C-45.13262148 99.42328719 -46.82333089 99.43482553 -48.51394844 99.45348549 C-68.81998572 99.66359073 -68.81998572 99.66359073 -77.17189026 93.36103821 C-78.87115542 91.80062414 -78.87115542 91.80062414 -80.875 92.0625 C-83.20200016 93.01015156 -83.20200016 93.01015156 -85.8125 94.9375 C-91.76278 98.78768118 -97.61803753 99.32386722 -104.5 99.25 C-105.58087891 99.26160156 -105.58087891 99.26160156 -106.68359375 99.2734375 C-111.47885624 99.25609478 -115.44782059 98.50940686 -120 97 C-120.03867187 97.94359375 -120.03867187 97.94359375 -120.078125 98.90625 C-120.58223203 106.51368342 -122.3392518 111.82188409 -127.25 117.6875 C-135.70421733 124.79672821 -142.97169154 127.39231137 -154 127 C-152.66666667 125.66666667 -151.33333333 124.33333333 -150 123 C-149.46375 122.4225 -148.9275 121.845 -148.375 121.25 C-147 120 -147 120 -145 120 C-144.731875 119.319375 -144.46375 118.63875 -144.1875 117.9375 C-143.31295707 115.77415695 -142.38872321 113.63073998 -141.4375 111.5 C-139.40437462 106.54978169 -138.87322893 102.25482033 -138.79467773 96.92456055 C-138.77473251 95.72369308 -138.75478729 94.52282562 -138.73423767 93.28556824 C-138.71752518 91.99894791 -138.70081268 90.71232758 -138.68359375 89.38671875 C-138.66300365 88.04864388 -138.64200665 86.71057521 -138.62062073 85.37251282 C-138.56561225 81.86271206 -138.51611006 78.35285468 -138.46777344 74.84295654 C-138.41740272 71.25658165 -138.3617982 67.67028827 -138.30664062 64.08398438 C-138.19931897 57.0560604 -138.09781707 50.02806321 -138 43 C-135.02958551 41.51479275 -132.30235553 41.8294178 -129 41.8125 C-127.1128125 41.79123047 -127.1128125 41.79123047 -125.1875 41.76953125 C-122 42 -122 42 -120 44 C-119.74462891 46.70214844 -119.74462891 46.70214844 -119.7265625 50.109375 C-119.7059375 51.33914062 -119.6853125 52.56890625 -119.6640625 53.8359375 C-119.63817742 56.42962239 -119.61985497 59.02339461 -119.609375 61.6171875 C-119.5933798 70.65130383 -119.5933798 70.65130383 -115 78 C-110.12801422 81.15246138 -103.42145373 80.70085644 -97.90234375 79.5703125 C-94.6136351 78.4391643 -93.12850285 77.21417142 -91.34765625 74.24609375 C-89.07199291 68.50452302 -89.46465514 62.20874178 -89.375 56.125 C-89.32426004 53.6691861 -89.26978709 51.21344545 -89.2109375 48.7578125 C-89.18459229 47.13576904 -89.18459229 47.13576904 -89.15771484 45.48095703 C-89 43 -89 43 -88 42 C-85.30345146 41.92680379 -82.63308542 41.90757463 -79.9375 41.9375 C-78.79958008 41.94426758 -78.79958008 41.94426758 -77.63867188 41.95117188 C-75.75908129 41.9629932 -73.87953101 41.98092922 -72 42 C-70.59137338 44.81725324 -70.85427896 47.21560934 -70.82421875 50.36328125 C-70.78844727 52.28237305 -70.78844727 52.28237305 -70.75195312 54.24023438 C-70.71690172 56.27444128 -70.68752938 58.30805776 -70.67407227 60.3425293 C-70.65853211 62.30800036 -70.61665883 64.273207 -70.57421875 66.23828125 C-70.55963623 67.41430908 -70.54505371 68.59033691 -70.5300293 69.80200195 C-69.88812273 73.67502551 -68.80636579 75.28512324 -66 78 C-61.92192179 80.07731405 -58.4598009 80.25791659 -53.91821289 80.2746582 C-53.22486343 80.27976913 -52.53151398 80.28488007 -51.81715393 80.29014587 C-49.53556578 80.30399414 -47.25428131 80.30308879 -44.97265625 80.30078125 C-43.37991728 80.30467072 -41.78717935 80.30900591 -40.19444275 80.31376648 C-36.85981887 80.32121837 -33.52530089 80.32094486 -30.19067383 80.31567383 C-25.92582394 80.30987961 -21.66140839 80.32681379 -17.39663029 80.3500185 C-14.10828636 80.3647783 -10.82004652 80.36562451 -7.53167534 80.36250877 C-5.95966163 80.36302083 -4.38764192 80.36823677 -2.81566048 80.37832069 C-0.61388356 80.39071224 1.58705402 80.38387809 3.78881836 80.37231445 C5.03948593 80.37294388 6.2901535 80.3735733 7.57872009 80.3742218 C12.27980135 79.8600145 15.70063179 78.47206905 18.8515625 74.90234375 C20.49166572 70.75745705 20.43620856 66.9797181 20.375 62.5625 C20.38660156 61.72912109 20.39820313 60.89574219 20.41015625 60.03710938 C20.38637184 55.02256361 20.07795614 51.1646631 17 47 C10.61243531 43.26816927 4.5215461 43.65835676 -2.72265625 43.8125 C-4.55092201 43.82953979 -4.55092201 43.82953979 -6.41612244 43.84692383 C-10.29857672 43.88347203 -14.18035191 43.93935272 -18.0625 44 C-23.17836807 44.07981172 -28.2938994 44.13977803 -33.41015625 44.1875 C-34.5821608 44.21239502 -35.75416534 44.23729004 -36.96168518 44.26293945 C-47.31699712 44.3563884 -47.31699712 44.3563884 -52 41 C-54.09008849 37.86486727 -54.60914024 35.89701722 -54.4987793 32.14770508 C-53.8869888 29.51338252 -52.92937135 28.41206797 -51.08203125 26.44921875 C-48.0679925 23.18264729 -45.21112947 19.83518938 -42.3828125 16.40625 C-29.68026976 1.80961753 -20.12103862 -3.61017381 0 0 Z " fill="#FFFFFF" transform="translate(489,96)"/>
<path d="M0 0 C-1.5391801 3.66752005 -3.75485452 5.98580573 -6.5703125 8.765625 C-7.46621094 9.65507813 -8.36210938 10.54453125 -9.28515625 11.4609375 C-10.22230469 12.38132812 -11.15945312 13.30171875 -12.125 14.25 C-13.07988637 15.19484856 -14.03431859 16.14015633 -14.98828125 17.0859375 C-17.32109087 19.39518338 -19.65844086 21.69963203 -22 24 C-20.96705811 24.0093457 -19.93411621 24.01869141 -18.86987305 24.02832031 C-14.98729468 24.06860543 -11.1054771 24.13446442 -7.22338867 24.20751953 C-5.55259068 24.23550825 -3.88166572 24.25683112 -2.21069336 24.27099609 C10.26850566 24.38305116 21.70801905 24.85160123 31.27734375 33.9296875 C35.98450991 39.58682597 39.06207342 46.5394167 39.2109375 53.89453125 C39.23929688 54.85037109 39.26765625 55.80621094 39.296875 56.79101562 C39.34865067 58.79343981 39.39301175 60.79607046 39.4296875 62.79882812 C39.60465962 68.2266092 39.88769167 72.34657282 43 77 C48.12739413 80.84554559 53.85557058 80.65833172 60 80 C64.02177353 78.70728708 65.45999969 77.90045922 67.62866211 74.28417969 C69.08872621 70.78751203 69.39475717 68.34692365 69.44140625 64.578125 C69.46783203 63.38832031 69.49425781 62.19851562 69.52148438 60.97265625 C69.53501953 59.74417969 69.54855469 58.51570313 69.5625 57.25 C69.59682023 54.79673876 69.63935782 52.34357415 69.69140625 49.890625 C69.70373291 48.80813477 69.71605957 47.72564453 69.72875977 46.61035156 C70 44 70 44 72 42 C75.1875 41.76953125 75.1875 41.76953125 79 41.8125 C80.258125 41.81894531 81.51625 41.82539063 82.8125 41.83203125 C86 42 86 42 88 43 C88.0093457 43.8470752 88.01869141 44.69415039 88.02832031 45.56689453 C88.07252612 48.73194352 88.13422527 51.89604812 88.20751953 55.06054688 C88.23561623 56.42598164 88.25688677 57.79157564 88.27099609 59.15722656 C88.29257982 61.12854038 88.3413546 63.09949631 88.390625 65.0703125 C88.41157227 66.25383301 88.43251953 67.43735352 88.45410156 68.65673828 C89.10536273 72.64527606 90.51279795 74.85012384 93 78 C97.41838218 80.85895318 102.91539902 80.52149754 108 80 C112.85703915 78.32211375 114.76587272 76.56757569 117 72 C117.46771938 68.84762184 117.46771938 68.84762184 117.44140625 65.45703125 C117.46783203 64.21888672 117.49425781 62.98074219 117.52148438 61.70507812 C117.53501953 60.42052734 117.54855469 59.13597656 117.5625 57.8125 C117.59681887 55.25637964 117.63935559 52.70035202 117.69140625 50.14453125 C117.70373291 49.01378174 117.71605957 47.88303223 117.72875977 46.71801758 C118 44 118 44 120 42 C122.56292317 41.82836269 125.00345857 41.76735442 127.5625 41.8125 C128.26052734 41.81314453 128.95855469 41.81378906 129.67773438 41.81445312 C134.85968842 41.85968842 134.85968842 41.85968842 136 43 C136.13824874 45.3431731 136.21311656 47.65472625 136.23828125 50 C136.246353 50.70970947 136.25442474 51.41941895 136.26274109 52.15063477 C136.27660566 53.6604568 136.28731715 55.17031049 136.29516602 56.68017578 C136.31222501 58.96319797 136.35606528 61.24471254 136.40039062 63.52734375 C136.48477361 71.36355221 136.35906019 78.19387003 132 85 C131.48179687 85.80953125 130.96359375 86.6190625 130.4296875 87.453125 C125.30229706 93.37925465 118.8209561 97.59335322 111 99 C100.79908523 99.69370769 90.34179189 99.91718647 81.84375 93.328125 C81.2353125 92.88984375 80.626875 92.4515625 80 92 C77.5908295 92.50886646 77.5908295 92.50886646 75 94 C73.64763157 94.69103057 72.29333412 95.37829429 70.9375 96.0625 C69.96103516 96.57490234 69.96103516 96.57490234 68.96484375 97.09765625 C60.59684959 100.94061182 48.22043104 100.20861883 39.6875 97.1875 C37.0708134 96.11535682 35.08388195 95.06515694 32.84765625 93.328125 C32.23792969 92.88984375 31.62820312 92.4515625 31 92 C28.5908295 92.50886646 28.5908295 92.50886646 26 94 C24.64763157 94.69103057 23.29333412 95.37829429 21.9375 96.0625 C20.96103516 96.57490234 20.96103516 96.57490234 19.96484375 97.09765625 C16.41538758 98.72772459 13.18768362 99.12681015 9.30308533 99.14717102 C8.36268402 99.15432632 7.42228271 99.16148163 6.4533844 99.16885376 C5.42841354 99.17154266 4.40344269 99.17423157 3.34741211 99.17700195 C2.26234375 99.18357315 1.17727539 99.19014435 0.05932617 99.19691467 C-3.53466869 99.21663742 -7.12862173 99.22830956 -10.72265625 99.23828125 C-12.56657865 99.24439454 -12.56657865 99.24439454 -14.447752 99.25063133 C-20.28634827 99.26934024 -26.12492818 99.28390485 -31.96354872 99.2922433 C-38.01284432 99.3010274 -44.0618882 99.3202758 -50.11108398 99.35668945 C-56.6126075 99.39519805 -63.11390421 99.4139383 -69.61553764 99.41844749 C-72.08774496 99.42330548 -74.55994894 99.4348968 -77.03209114 99.45348549 C-80.50220874 99.47795129 -83.97147214 99.47689756 -87.44165039 99.4699707 C-88.45245163 99.48278076 -89.46325287 99.49559082 -90.50468445 99.50878906 C-100.33580698 99.43768952 -109.05324115 96.88292321 -116.27734375 90 C-122.25816612 83.05627879 -124.13341941 76.62169094 -124.09765625 67.609375 C-124.09553383 66.55245453 -124.09553383 66.55245453 -124.09336853 65.47418213 C-124.08778933 63.23274416 -124.07524073 60.99140757 -124.0625 58.75 C-124.05748231 57.22656395 -124.05291987 55.70312632 -124.04882812 54.1796875 C-124.03782674 50.45309228 -124.02057646 46.72655604 -124 43 C-121.02760209 41.51380105 -118.30380422 41.86822991 -115 41.875 C-113.1128125 41.87113281 -113.1128125 41.87113281 -111.1875 41.8671875 C-108 42 -108 42 -106 43 C-105.98541748 43.78125244 -105.97083496 44.56250488 -105.95581055 45.36743164 C-105.88099502 48.93293368 -105.78444367 52.49753377 -105.6875 56.0625 C-105.66494141 57.29162109 -105.64238281 58.52074219 -105.61914062 59.78710938 C-105.47085505 68.8564508 -105.47085505 68.8564508 -102 77 C-96.67304937 80.57098344 -91.77136083 80.42688951 -85.59179688 80.38818359 C-84.0394912 80.39606903 -84.0394912 80.39606903 -82.45582581 80.40411377 C-79.04331257 80.41729127 -75.63126778 80.40858335 -72.21875 80.3984375 C-69.84273184 80.40045887 -67.46671428 80.40337084 -65.09069824 80.40713501 C-60.11427903 80.41155533 -55.1380215 80.40513652 -50.16162109 80.39111328 C-43.78598917 80.3740218 -37.41073613 80.38386451 -31.0351181 80.40183067 C-26.1297521 80.41267626 -21.22447577 80.40921856 -16.31910706 80.4014473 C-13.96838842 80.39944745 -11.61766161 80.401897 -9.26695251 80.40888596 C-5.98048361 80.41651293 -2.69462652 80.40487804 0.59179688 80.38818359 C2.04609352 80.39729263 2.04609352 80.39729263 3.5297699 80.40658569 C8.77352862 80.35729149 12.47112335 79.94865912 17 77 C20.91313644 72.62357468 20.48209637 67.62893724 20.4375 62.0625 C20.45748047 61.18142578 20.47746094 60.30035156 20.49804688 59.39257812 C20.49388174 53.8321286 19.97484774 50.22616923 16 46 C10.401099 43.36232538 4.76661718 43.79555759 -1.27734375 43.91015625 C-3.50455513 43.93057591 -5.73176876 43.95075068 -7.95898438 43.97070312 C-11.45249184 44.01419077 -14.94584537 44.06262859 -18.43920898 44.11645508 C-21.82274857 44.16484925 -25.20608295 44.19464226 -28.58984375 44.22265625 C-30.14795021 44.2552932 -30.14795021 44.2552932 -31.73753357 44.28858948 C-38.41268588 44.33404995 -43.49509772 43.80392182 -48.875 39.5 C-51.53210496 35.95719339 -51.35916903 32.23819454 -51 28 C-38.58124499 7.46095648 -24.66376434 -4.42524254 0 0 Z " fill="#FFFFFF" transform="translate(124,96)"/>
<path d="M0 0 C1.15628906 0.01546875 2.31257812 0.0309375 3.50390625 0.046875 C6.4375 0.25 6.4375 0.25 8.4375 1.25 C8.44963028 2.52333946 8.44963028 2.52333946 8.46200562 3.82240295 C8.54009703 11.84064886 8.62743126 19.85873018 8.72502708 27.87676334 C8.77487371 31.99845609 8.82120433 36.12012464 8.859375 40.24194336 C8.89637535 44.22319166 8.94277438 48.20423168 8.99556351 52.18530083 C9.01402937 53.70062018 9.02916585 55.21598406 9.04084396 56.73137093 C9.05784107 58.86157473 9.08690624 60.99130959 9.11865234 63.12133789 C9.13197601 64.3315712 9.14529968 65.5418045 9.1590271 66.78871155 C9.45916263 70.5192564 10.20404336 73.71980285 11.4375 77.25 C15.06703772 79.911661 19.49224156 80.37340934 23.90231323 80.39044189 C24.79104126 80.39615204 25.67976929 80.40186218 26.59542847 80.40774536 C27.56279938 80.40886322 28.53017029 80.40998108 29.52685547 80.41113281 C30.5516803 80.41609772 31.57650513 80.42106262 32.63238525 80.42617798 C36.02315949 80.44078505 39.41388697 80.44759875 42.8046875 80.453125 C45.161143 80.45887707 47.51759848 80.4646348 49.87405396 80.47039795 C54.81528949 80.48090339 59.75650877 80.48674925 64.69775391 80.49023438 C71.02856631 80.49572211 77.35916397 80.51975823 83.68990898 80.54820633 C88.55751168 80.56683007 93.42506259 80.57203815 98.29269791 80.57357025 C100.62668153 80.57659723 102.96066422 80.58462724 105.29461288 80.59775543 C108.55969348 80.61481211 111.82424838 80.61293652 115.08935547 80.60644531 C116.05267792 80.6156601 117.01600037 80.62487488 118.0085144 80.6343689 C123.24358162 80.60177057 126.9149775 80.19367884 131.4375 77.25 C135.35063644 72.87357468 134.91959637 67.87893724 134.875 62.3125 C134.89498047 61.43142578 134.91496094 60.55035156 134.93554688 59.64257812 C134.93138174 54.0821286 134.41234774 50.47616923 130.4375 46.25 C124.96774981 43.74485766 119.47059055 43.90429107 113.5703125 43.8359375 C112.53558807 43.81657135 111.50086365 43.7972052 110.43478394 43.7772522 C107.14410533 43.71768158 103.85339132 43.67116095 100.5625 43.625 C98.32550595 43.58679952 96.08852628 43.54774659 93.8515625 43.5078125 C88.38033642 43.41199862 82.90902305 43.32688569 77.4375 43.25 C76.84741211 41.40234375 76.84741211 41.40234375 76.4375 39.25 C77.87890625 36.8125 77.87890625 36.8125 80 34.25 C80.68191406 33.404375 81.36382813 32.55875 82.06640625 31.6875 C85.87520841 27.77202628 88.83446676 25.45522261 94.35644531 24.74829102 C95.82604408 24.72881997 97.29606342 24.73180557 98.765625 24.75390625 C99.55467224 24.75245102 100.34371948 24.75099579 101.15667725 24.74949646 C102.82079775 24.7511501 104.4849344 24.7626514 106.14892578 24.78344727 C108.6663692 24.81225817 111.18168309 24.80407389 113.69921875 24.79101562 C125.63706704 24.8061197 136.49221179 25.38149538 145.4375 34.25 C152.89320785 43.49507774 153.75543138 51.66383444 153.91601562 63.1953125 C154.06610999 68.56942303 154.30463859 72.66496518 157.4375 77.25 C163.21709404 80.71775643 168.89114493 81.22421894 175.4609375 79.81640625 C178.77815698 78.68967136 180.29572291 77.48573786 182.09375 74.49609375 C184.3644288 68.75396789 183.9728594 62.45775499 184.0625 56.375 C184.11323996 53.9191861 184.16771291 51.46344545 184.2265625 49.0078125 C184.24412598 47.9264502 184.26168945 46.84508789 184.27978516 45.73095703 C184.4375 43.25 184.4375 43.25 185.4375 42.25 C187.92988569 42.12346802 190.38220441 42.06480175 192.875 42.0625 C193.56916016 42.05025391 194.26332031 42.03800781 194.97851562 42.02539062 C196.79970901 42.02010158 198.6203692 42.12830793 200.4375 42.25 C203.21430405 45.02680405 202.69119331 46.72981312 202.7109375 50.61328125 C202.741875 52.53237305 202.741875 52.53237305 202.7734375 54.49023438 C202.79598766 56.52440625 202.8124877 58.55823841 202.81835938 60.5925293 C202.82792224 62.55793795 202.86290561 64.52317054 202.8984375 66.48828125 C202.90665527 67.66430908 202.91487305 68.84033691 202.92333984 70.05200195 C203.53658013 73.86626333 204.77164182 75.50755808 207.4375 78.25 C211.951466 81.03803782 217.30150764 80.7849992 222.4375 80.25 C226.708281 78.69698873 229.12560101 77.15063301 231.4375 73.25 C231.90908081 70.09222388 231.90908081 70.09222388 231.87890625 66.5859375 C231.90533203 65.29945313 231.93175781 64.01296875 231.95898438 62.6875 C231.97388138 61.33334626 231.98753923 59.97917835 232 58.625 C232.03129773 55.96564096 232.07684467 53.30758282 232.12890625 50.6484375 C232.14123291 49.46942871 232.15355957 48.29041992 232.16625977 47.07568359 C232.4375 44.25 232.4375 44.25 234.4375 42.25 C237.00042317 42.07836269 239.44095857 42.01735442 242 42.0625 C242.69802734 42.06314453 243.39605469 42.06378906 244.11523438 42.06445312 C249.29718842 42.10968842 249.29718842 42.10968842 250.4375 43.25 C250.73097542 47.93037567 250.75180979 52.6137961 250.78759766 57.30249023 C250.80403256 58.87653517 250.83115471 60.45050944 250.86962891 62.02416992 C251.15250034 73.66002482 250.15475844 81.85165654 242.375 91.0625 C234.05946282 98.57675415 224.32006132 100.18284425 213.515625 99.6796875 C207.23017518 99.16223419 201.3321243 97.43266105 196.26171875 93.609375 C194.56574053 92.05053792 194.56574053 92.05053792 192.5625 92.3125 C190.23549984 93.26015156 190.23549984 93.26015156 187.625 95.1875 C181.74987629 98.98905063 175.87432102 99.61458634 169.0625 99.5625 C168.31444092 99.55831055 167.56638184 99.55412109 166.7956543 99.54980469 C159.5720334 99.4021113 154.13126803 98.16671956 148.1875 93.9375 C145.61893825 91.92765326 145.61893825 91.92765326 143.0625 92.75 C141.763125 93.4925 141.763125 93.4925 140.4375 94.25 C139.08735522 94.94536515 137.73285654 95.63231678 136.375 96.3125 C135.39853516 96.82490234 135.39853516 96.82490234 134.40234375 97.34765625 C130.85052158 98.97881116 127.62103487 99.37682903 123.7338562 99.39717102 C122.79200974 99.40432632 121.85016327 99.41148163 120.879776 99.41885376 C119.33996315 99.42288712 119.33996315 99.42288712 117.76904297 99.42700195 C116.68236832 99.43357315 115.59569366 99.44014435 114.47608948 99.44691467 C110.8772881 99.46663578 107.27852847 99.47830857 103.6796875 99.48828125 C102.44915775 99.49235678 101.21862801 99.4964323 99.95080948 99.50063133 C94.10740984 99.51933878 88.26402656 99.53390438 82.42060268 99.5422433 C76.36394371 99.55103118 70.30753593 99.57029356 64.25097656 99.60668945 C57.74297384 99.64517193 51.23519751 99.6639356 44.72708511 99.66844749 C42.25126023 99.67330896 39.77543877 99.6849103 37.2996788 99.70348549 C33.82696235 99.7279182 30.3551009 99.72690367 26.88232422 99.7199707 C25.8679277 99.73278076 24.85353119 99.74559082 23.80839539 99.75878906 C14.12193489 99.68863529 6.24694268 96.86325871 -0.80859375 90.1640625 C-10.01331585 80.11882012 -9.8773042 68.56505443 -9.86328125 55.6015625 C-9.86717456 54.09703454 -9.87151053 52.59250766 -9.87626648 51.08798218 C-9.88368663 47.95298677 -9.88346548 44.81810413 -9.87817383 41.68310547 C-9.87234499 37.66468712 -9.88941184 33.6467246 -9.9125185 29.62838173 C-9.92722889 26.52974755 -9.92813194 23.43122439 -9.92500877 20.33256149 C-9.92552205 18.85017357 -9.93076095 17.36777945 -9.94082069 15.88542557 C-9.95313372 13.81995744 -9.94642874 11.75539459 -9.93481445 9.68994141 C-9.93544388 8.51573639 -9.9360733 7.34153137 -9.9367218 6.13174438 C-9.5625 3.25 -9.5625 3.25 -8.23088074 1.36801147 C-5.57299368 -0.41308571 -3.1427459 -0.07022896 0 0 Z " fill="#FFFFFF" transform="translate(812.5625,95.75)"/>
<path d="M0 0 C0.33 0 0.66 0 1 0 C1 41.91 1 83.82 1 127 C-10.85546564 129.63454792 -22.5966278 132.10805365 -34.5625 134.0625 C-35.72812469 134.25434875 -35.72812469 134.25434875 -36.91729736 134.45007324 C-68.78441799 139.67797436 -102.73830213 145.09672354 -135 141 C-135 140.34 -135 139.68 -135 139 C-133.84628906 138.57332031 -132.69257812 138.14664063 -131.50390625 137.70703125 C-111.58137314 130.14455799 -92.21167859 120.64886823 -75 108 C-74.43394043 107.5865332 -73.86788086 107.17306641 -73.28466797 106.74707031 C-66.61939576 101.84097745 -60.29393864 96.6344329 -54.20703125 91.01953125 C-52.28517848 89.26095093 -50.32352511 87.59180225 -48.3125 85.9375 C-44.45002561 82.63064837 -41.22476007 78.92251518 -38 75 C-37.16339844 73.989375 -36.32679687 72.97875 -35.46484375 71.9375 C-18.588558 51.21160314 -5.63162457 27.52657707 -1 1 C-0.67 0.67 -0.34 0.34 0 0 Z " fill="#FFFFFF" transform="translate(1535,173)"/>
<path d="M0 0 C7.93542283 5.60057727 14.17917283 12.56310506 16.4039917 22.16365051 C16.82220329 24.61956253 16.98298939 26.88976278 17.00488281 29.37768555 C17.01449036 30.26598557 17.0240979 31.15428558 17.03399658 32.06950378 C17.03824646 33.01852066 17.04249634 33.96753754 17.046875 34.9453125 C17.05257507 35.93553909 17.05827515 36.92576569 17.06414795 37.94599915 C17.07357951 40.0397536 17.08012459 42.13352278 17.08398438 44.22729492 C17.09366308 47.40505412 17.12469335 50.58215878 17.15625 53.75976562 C17.16278358 55.80077744 17.16803265 57.84179385 17.171875 59.8828125 C17.1842218 60.82170822 17.1965686 61.76060394 17.20928955 62.72795105 C17.17567688 72.85354152 14.64133803 82.05098869 7.84375 89.74609375 C-0.46401095 96.69900479 -7.52758187 98.00532956 -18.15625 97.74609375 C-18.15625 91.80609375 -18.15625 85.86609375 -18.15625 79.74609375 C-16.774375 79.51921875 -15.3925 79.29234375 -13.96875 79.05859375 C-9.38532303 78.02804335 -7.03778303 76.58813779 -4.15625 72.74609375 C-2.82061389 69.57907952 -2.82061389 69.57907952 -2.15625 66.74609375 C-2.75050781 66.96265625 -3.34476562 67.17921875 -3.95703125 67.40234375 C-13.9057759 70.74437928 -23.42480024 71.04415073 -33.15625 66.74609375 C-41.637368 61.81413926 -48.47137792 54.46790392 -51.49609375 45.06640625 C-53.88742716 33.03898971 -53.04497479 21.23078024 -46.87109375 10.515625 C-41.80555278 2.99491933 -34.45978857 -1.52210365 -25.7578125 -3.78515625 C-16.83614696 -5.39266355 -7.93042059 -4.61171197 0 0 Z M-31.9921875 22.125 C-35.62371241 27.18232496 -34.63849894 33.78930051 -34.15625 39.74609375 C-32.75128453 43.35723586 -32.75128453 43.35723586 -30.15625 45.74609375 C-28.8259375 47.13828125 -28.8259375 47.13828125 -27.46875 48.55859375 C-23.30936888 51.30535487 -20.10548187 52.03976545 -15.15625 51.74609375 C-9.92894404 50.17790196 -6.60049453 47.97759417 -3.15625 43.74609375 C-0.08830982 37.46412099 -0.30239809 30.48740779 -2.34375 23.93359375 C-4.91985085 19.4032095 -7.33626474 16.5423373 -12.15625 14.43359375 C-20.95843608 12.41642611 -26.53588436 15.34109369 -31.9921875 22.125 Z " fill="#FFFFFF" transform="translate(323.15625,125.25390625)"/>
<path d="M0 0 C1.26972656 -0.00257813 2.53945313 -0.00515625 3.84765625 -0.0078125 C6.9375 0.125 6.9375 0.125 7.9375 1.125 C8.0593112 3.05342595 8.11724131 4.9859513 8.1484375 6.91796875 C8.17679688 8.10583984 8.20515625 9.29371094 8.234375 10.51757812 C8.28605333 13.02785323 8.33044152 15.53829004 8.3671875 18.04882812 C8.398125 19.24314453 8.4290625 20.43746094 8.4609375 21.66796875 C8.48075684 22.76133545 8.50057617 23.85470215 8.52099609 24.98120117 C9.11322817 29.45140774 10.57555547 32.89073777 13.9375 35.9375 C17.10240092 37.81665992 19.67905425 38.25154303 23.28205872 38.26544189 C24.16941208 38.27115204 25.05676544 38.27686218 25.9710083 38.28274536 C27.42745758 38.28442215 27.42745758 38.28442215 28.91333008 38.28613281 C29.93800888 38.29109772 30.96268768 38.29606262 32.01841736 38.30117798 C35.41462878 38.31580547 38.81079348 38.32260264 42.20703125 38.328125 C44.56491599 38.333876 46.92280072 38.33963374 49.28068542 38.34539795 C54.22789732 38.35590963 59.17509296 38.3617512 64.12231445 38.36523438 C70.46100263 38.37071916 76.799476 38.39474637 83.13809681 38.42320633 C88.00999072 38.44183161 92.88183288 38.44703826 97.75375938 38.44857025 C100.09053408 38.45159759 102.42730784 38.45962881 104.76404762 38.47275543 C108.03402667 38.48981307 111.30348082 38.48793611 114.57348633 38.48144531 C116.02082657 38.49526749 116.02082657 38.49526749 117.49740601 38.5093689 C122.71547284 38.47692885 126.45986772 38.12055499 130.9375 35.125 C133.74807933 30.90373249 134.33425712 27.42638954 134.44921875 22.4140625 C134.48466797 21.17011719 134.52011719 19.92617187 134.55664062 18.64453125 C134.59047852 16.71673828 134.59047852 16.71673828 134.625 14.75 C134.65916016 13.44160156 134.69332031 12.13320312 134.72851562 10.78515625 C134.81077754 7.56518975 134.88000263 4.34548821 134.9375 1.125 C137.90791449 -0.36020725 140.63514447 -0.0455822 143.9375 -0.0625 C145.8246875 -0.08376953 145.8246875 -0.08376953 147.75 -0.10546875 C150.9375 0.125 150.9375 0.125 152.9375 2.125 C153.36319647 6.23708477 153.30908435 10.35666792 153.30810547 14.48901367 C153.31241875 16.52416542 153.34854688 18.55703808 153.38671875 20.59179688 C153.41937504 31.64595237 151.8395826 41.16049843 144.00390625 49.40234375 C138.04201827 54.37246208 131.01910757 57.23122909 123.27854919 57.27217102 C122.34656204 57.27932632 121.41457489 57.28648163 120.4543457 57.29385376 C118.93091553 57.29788712 118.93091553 57.29788712 117.37670898 57.30200195 C115.7637368 57.31185875 115.7637368 57.31185875 114.11817932 57.32191467 C110.55665007 57.34163665 106.99516302 57.35330942 103.43359375 57.36328125 C102.21534472 57.36735678 100.99709568 57.3714323 99.74193001 57.37563133 C93.29076431 57.39648984 86.83961986 57.41079115 80.38842773 57.42016602 C73.73970041 57.43020767 67.09127755 57.4655986 60.44265652 57.50533772 C55.31835833 57.53154342 50.19413964 57.53986152 45.06978035 57.54344749 C42.61990152 57.54830511 40.17002605 57.5598954 37.72021294 57.57848549 C34.28122602 57.60295454 30.84310089 57.60189698 27.40405273 57.5949707 C26.40260223 57.60778076 25.40115173 57.62059082 24.36935425 57.63378906 C13.9284982 57.5576123 5.38193928 54.52587212 -2.18359375 47.28515625 C-7.52127985 41.14848179 -9.21837447 34.5807715 -9.16015625 26.61328125 C-9.1587413 25.88505661 -9.15732635 25.15683197 -9.15586853 24.40653992 C-9.15027659 22.08348461 -9.13772562 19.76052612 -9.125 17.4375 C-9.11998396 15.86132952 -9.11542123 14.28515752 -9.11132812 12.70898438 C-9.1003098 8.84761902 -9.08305074 4.98632592 -9.0625 1.125 C-6.07566593 -0.36841703 -3.31850226 -0.00675178 0 0 Z " fill="#FFFFFF" transform="translate(640.0625,137.875)"/>
<path d="M0 0 C1.15628906 0.00386719 2.31257813 0.00773437 3.50390625 0.01171875 C6.4375 0.3125 6.4375 0.3125 8.4375 2.3125 C8.62591754 5.35608526 8.68913081 8.30805235 8.66455078 11.35205078 C8.66484283 12.28868561 8.66513489 13.22532043 8.66543579 14.19033813 C8.66403885 17.29625611 8.64846049 20.40193626 8.6328125 23.5078125 C8.62908367 25.65729644 8.62623608 27.80678207 8.62423706 29.95626831 C8.61659039 35.62148712 8.59693303 41.28660383 8.5748291 46.95178223 C8.55439291 52.72955952 8.54524011 58.50735326 8.53515625 64.28515625 C8.51368812 75.62764909 8.47953973 86.97006607 8.4375 98.3125 C5.46708551 99.79770725 2.73985553 99.4830822 -0.5625 99.5 C-2.4496875 99.52126953 -2.4496875 99.52126953 -4.375 99.54296875 C-7.5625 99.3125 -7.5625 99.3125 -9.5625 97.3125 C-9.76661597 94.34590703 -9.84563889 91.4722859 -9.8371582 88.50415039 C-9.84226913 87.59184158 -9.84738007 86.67953278 -9.85264587 85.73957825 C-9.86658677 82.71303818 -9.86558172 79.68672468 -9.86328125 76.66015625 C-9.86716574 74.5626975 -9.8714999 72.46523953 -9.87626648 70.36778259 C-9.8837384 65.96692355 -9.88343041 61.56614471 -9.87817383 57.1652832 C-9.8723783 51.51789612 -9.88930763 45.87083691 -9.9125185 40.22350407 C-9.92723073 35.89043753 -9.92813096 31.55745041 -9.92500877 27.22436333 C-9.92552326 25.14189441 -9.9307848 23.05942119 -9.94082069 20.97697639 C-9.95311899 18.06784724 -9.94643317 15.15936252 -9.93481445 12.25024414 C-9.94245819 11.38520264 -9.95010193 10.52016113 -9.95797729 9.62890625 C-9.90598067 3.75664665 -9.90598067 3.75664665 -8.23076153 1.59046078 C-5.61169879 -0.41585502 -3.23384835 -0.0469721 0 0 Z " fill="#FFFFFF" transform="translate(1082.5625,95.6875)"/>
<path d="M0 0 C5.61 0 11.22 0 17 0 C17.02312132 12.62995485 17.04091401 25.2599047 17.05181217 37.88987637 C17.05704146 43.75382164 17.06413994 49.61775249 17.07543945 55.48168945 C17.0862667 61.13561712 17.09227649 66.78953087 17.09487724 72.44346809 C17.09673179 74.6057361 17.10035295 76.76800331 17.10573006 78.93026543 C17.11293833 81.94758657 17.11399103 84.96484943 17.11352539 87.98217773 C17.11712067 88.8856041 17.12071594 89.78903046 17.12442017 90.71983337 C17.11405216 96.88594784 17.11405216 96.88594784 16 98 C13.48863896 98.09975032 11.01096585 98.13882183 8.5 98.125 C7.79746094 98.12886719 7.09492187 98.13273437 6.37109375 98.13671875 C1.12661378 98.12661378 1.12661378 98.12661378 0 97 C-0.09529612 93.98649762 -0.12551904 90.99595894 -0.11352539 87.98217773 C-0.11367142 87.03593536 -0.11381744 86.08969299 -0.1139679 85.11477661 C-0.11326836 81.97102608 -0.10547409 78.82733399 -0.09765625 75.68359375 C-0.09579221 73.51025932 -0.09436824 71.33692448 -0.09336853 69.16358948 C-0.08954221 63.43098805 -0.07971097 57.69841177 -0.06866455 51.96582031 C-0.05845287 46.12109721 -0.05387143 40.27637007 -0.04882812 34.43164062 C-0.0380888 22.954416 -0.02101102 11.47721009 0 0 Z " fill="#FFFFFF" transform="translate(585,97)"/>
<path d="M0 0 C2.97 0 5.94 0 9 0 C9.33 7.26 9.66 14.52 10 22 C12.31 20.68 14.62 19.36 17 18 C21.65912265 17.1311181 25.84470099 17.6076343 30.3125 19.125 C36.17438679 23.21468846 38.75956208 27.53541923 40.5625 34.34765625 C41.93381651 42.6612626 39.75400942 49.82150295 35.1875 56.75 C30.87310287 61.18766562 27.07071631 62.21210212 21 62.4375 C15.70321365 62.32550327 12.93770837 61.50018522 9 58 C8.34 59.32 7.68 60.64 7 62 C4.69 62 2.38 62 0 62 C0 41.54 0 21.08 0 0 Z M11 29 C7.32434508 34.2806909 8.32785617 41.87750177 9 48 C10.56829709 51.40477882 12.61029984 53.30514992 16 55 C20.98109259 55.37593152 24.05673864 55.1765161 28 52 C31.44080813 47.82187584 31.99094631 43.2692464 32 38 C31.08234384 32.49406302 29.4832475 29.38734256 25 26 C18.88569225 24.07512534 15.94742756 25.41068981 11 29 Z " fill="#FFFFFF" transform="translate(438,238)"/>
<path d="M0 0 C10.56 0 21.12 0 32 0 C32 2.31 32 4.62 32 7 C24.41 7 16.82 7 9 7 C9 12.61 9 18.22 9 24 C16.26 24 23.52 24 31 24 C31 26.64 31 29.28 31 32 C23.74 32 16.48 32 9 32 C9 38.27 9 44.54 9 51 C17.25 51 25.5 51 34 51 C34 53.31 34 55.62 34 58 C33 59 33 59 29.85717773 59.11352539 C28.46597304 59.11327441 27.07476209 59.10771709 25.68359375 59.09765625 C25.03588013 59.09664917 24.3881665 59.09564209 23.7208252 59.09460449 C21.29303221 59.08935843 18.86526439 59.07539725 16.4375 59.0625 C8.3009375 59.0315625 8.3009375 59.0315625 0 59 C0 39.53 0 20.06 0 0 Z " fill="#FFFFFF" transform="translate(0,241)"/>
<path d="M0 0 C10.89 0 21.78 0 33 0 C33 2.31 33 4.62 33 7 C25.08 7 17.16 7 9 7 C9 12.61 9 18.22 9 24 C16.26 24 23.52 24 31 24 C31 26.31 31 28.62 31 31 C23.74 31 16.48 31 9 31 C9 37.6 9 44.2 9 51 C17.25 51 25.5 51 34 51 C34 53.64 34 56.28 34 59 C22.78 59 11.56 59 0 59 C0 39.53 0 20.06 0 0 Z " fill="#FFFFFF" transform="translate(547,241)"/>
<path d="M0 0 C2.64 0 5.28 0 8 0 C8.33 7.59 8.66 15.18 9 23 C10.65 21.68 12.3 20.36 14 19 C17.70981281 17.14509359 21.95123393 17.5459909 26 18 C30.37482937 20.22718586 33.93633591 22.88625707 35.56811523 27.66308594 C36.17115593 30.92611905 36.11082027 34.07329319 36.09765625 37.390625 C36.0962413 38.09523865 36.09482635 38.79985229 36.09336853 39.52581787 C36.08778933 41.76725584 36.07524073 44.00859243 36.0625 46.25 C36.05748231 47.77343605 36.05291987 49.29687368 36.04882812 50.8203125 C36.03782674 54.54690772 36.02057646 58.27344396 36 62 C29.84765625 62.09765625 29.84765625 62.09765625 28 62 C26.13278213 60.13278213 26.82479592 56.97508776 26.7890625 54.48046875 C26.76098431 53.13475366 26.73231978 51.7890507 26.703125 50.44335938 C26.66191706 48.3169806 26.6250413 46.19082591 26.59863281 44.06420898 C26.57096313 42.01498254 26.52508379 39.96679353 26.4765625 37.91796875 C26.45674316 36.68844482 26.43692383 35.4589209 26.41650391 34.19213867 C25.97375852 30.79888201 25.3918171 29.39722845 23 27 C20.11617536 25.93753829 18.43636645 25.90421224 15.4375 26.5625 C12.13215924 28.51180353 10.38049441 30.46408682 9 34 C8.36329654 38.78634417 8.30322168 43.55118013 8.25 48.375 C8.22035156 49.68339844 8.19070313 50.99179687 8.16015625 52.33984375 C8.08964282 55.55995727 8.03685095 58.77935431 8 62 C5.36 62 2.72 62 0 62 C0 41.54 0 21.08 0 0 Z " fill="#FFFFFF" transform="translate(311,238)"/>
<path d="M0 0 C2.64 0 5.28 0 8 0 C8.33 11.55 8.66 23.1 9 35 C13.23369395 30.10888185 13.23369395 30.10888185 17.46655273 25.21704102 C17.99192627 24.61045654 18.5172998 24.00387207 19.05859375 23.37890625 C19.59798584 22.7557251 20.13737793 22.13254395 20.69311523 21.49047852 C21.4391417 20.63964878 22.19985416 19.80014584 23 19 C24.68608966 18.92794489 26.37500659 18.91613932 28.0625 18.9375 C28.98160156 18.94652344 29.90070313 18.95554687 30.84765625 18.96484375 C31.55792969 18.97644531 32.26820313 18.98804688 33 19 C31.64054005 22.06715595 30.11992465 24.07741042 27.6875 26.375 C24.54073234 29.42301972 21.7458279 32.58851686 19 36 C20.43972611 39.11381597 22.18052483 41.71536566 24.2578125 44.44140625 C24.88300781 45.27220703 25.50820313 46.10300781 26.15234375 46.95898438 C27.47217958 48.70090632 28.79512237 50.44047833 30.12109375 52.17773438 C30.74371094 53.00724609 31.36632812 53.83675781 32.0078125 54.69140625 C32.58160645 55.44623291 33.15540039 56.20105957 33.74658203 56.97875977 C35 59 35 59 35 62 C31.52102047 62.56699666 28.46381627 62.73029216 25 62 C21.96435133 59.4535918 20.06116999 56.3563306 18 53 C16.90077578 51.30927637 15.79686082 49.62158992 14.6875 47.9375 C14.21699219 47.18339844 13.74648438 46.42929687 13.26171875 45.65234375 C12.84535156 45.10707031 12.42898438 44.56179688 12 44 C11.34 44 10.68 44 10 44 C8.414131 47.171738 8.62133555 50.63513822 8.4375 54.125 C8.39431641 54.87910156 8.35113281 55.63320313 8.30664062 56.41015625 C8.2005168 58.27321888 8.09974999 60.13658524 8 62 C5.36 62 2.72 62 0 62 C0 41.54 0 21.08 0 0 Z " fill="#FFFFFF" transform="translate(247,238)"/>
<path d="M0 0 C4.55197775 2.66086382 7.34833339 6.8910007 9.625 11.5625 C11.80949687 20.32696622 10.49807904 28.66762461 5.9375 36.4375 C-0.28425396 42.15478742 -5.99632891 43.1846799 -14.38671875 42.875 C-19.96026186 42.29214582 -22.91885759 40.24803429 -26.625 36.25 C-31.21554312 30.45774402 -31.88435842 24.9392263 -31.7578125 17.671875 C-30.98891992 11.42658429 -28.2915532 6.4790532 -23.875 2.0625 C-16.65134376 -2.27169375 -7.92038176 -3.34212641 0 0 Z M-20.375 10.5625 C-22.93913925 15.79579444 -23.06398408 20.84057127 -22.375 26.5625 C-20.43618057 30.44013885 -18.30086799 33.59956601 -14.375 35.5625 C-10.30343087 36.08001227 -10.30343087 36.08001227 -6.375 35.5625 C-2.65732325 32.57219479 0.3946528 29.54455733 0.9609375 24.671875 C1.04127432 17.76290863 1.0178378 13.05354725 -3.375 7.5625 C-5.86656187 5.58643369 -7.554705 5.53920491 -10.75 5.125 C-15.40938085 5.68733907 -17.16379806 7.20193984 -20.375 10.5625 Z " fill="#FFFFFF" transform="translate(913.375,257.4375)"/>
<path d="M0 0 C4.57177944 3.16507807 5.89811591 5.2543564 7.4375 10.6875 C7.66988087 13.12504138 7.81337679 15.57203665 7.88671875 18.01953125 C7.90845657 18.69674728 7.9301944 19.37396332 7.95259094 20.07170105 C7.99622382 21.49095271 8.03548558 22.91034495 8.07055664 24.32983398 C8.12528522 26.51136934 8.19539131 28.69202622 8.26757812 30.87304688 C8.49494096 38.61060554 8.49494096 38.61060554 8.4375 41.6875 C7.4375 42.6875 7.4375 42.6875 4 42.9375 C2.824375 42.855 1.64875 42.7725 0.4375 42.6875 C-0.2225 41.6975 -0.8825 40.7075 -1.5625 39.6875 C-2.26375 40.17476563 -2.965 40.66203125 -3.6875 41.1640625 C-6.93572816 42.88527035 -8.91406196 43.09042172 -12.5625 43.0625 C-13.573125 43.07023437 -14.58375 43.07796875 -15.625 43.0859375 C-18.97972464 42.63090836 -20.84466692 41.67615835 -23.5625 39.6875 C-26.60034726 35.43451384 -27.0594686 31.96199873 -26.25390625 26.93359375 C-25.01293352 22.90218515 -22.87871742 20.25287574 -19.5625 17.6875 C-13.70317053 14.59843512 -8.06947524 14.37764404 -1.5625 14.6875 C-3.08805966 9.87627153 -3.08805966 9.87627153 -6.5625 6.6875 C-11.93973857 6.22505748 -16.52149535 6.61939553 -21.5625 8.6875 C-22.2225 6.3775 -22.8825 4.0675 -23.5625 1.6875 C-15.91672799 -1.84131785 -8.05411592 -2.96730587 0 0 Z M-15.625 24.9375 C-17.87952543 27.56131432 -17.87952543 27.56131432 -17.5 30.875 C-16.76281442 33.78532797 -16.76281442 33.78532797 -14.5625 35.6875 C-9.8002107 36.23399221 -7.65181127 36.36831954 -3.5625 33.8125 C-0.76127536 29.4355865 -1.12053751 25.74551512 -1.5625 20.6875 C-7.09551103 20.6875 -11.2089111 21.69302652 -15.625 24.9375 Z " fill="#FFFFFF" transform="translate(401.5625,257.3125)"/>
<path d="M0 0 C4.81603378 2.44458114 6.67677874 5.64217247 8.86328125 10.3515625 C9.86328125 14.3515625 9.86328125 14.3515625 9.86328125 23.3515625 C0.29328125 23.3515625 -9.27671875 23.3515625 -19.13671875 23.3515625 C-16.89535748 31.00672671 -16.89535748 31.00672671 -13.13671875 34.3515625 C-10.08255062 35.36961854 -7.95734914 35.48531765 -4.76171875 35.4765625 C-3.82585938 35.47914063 -2.89 35.48171875 -1.92578125 35.484375 C0.77057872 35.35597691 3.23599634 34.95344959 5.86328125 34.3515625 C6.52328125 36.6615625 7.18328125 38.9715625 7.86328125 41.3515625 C0.53026034 44.21155505 -8.89371848 44.83989806 -16.55859375 42.6640625 C-21.94765765 39.80261264 -25.38556957 35.33186489 -27.51171875 29.7265625 C-29.01801725 22.16610271 -28.28484951 13.7898968 -24.4453125 7.0390625 C-18.59746067 -0.50204792 -9.01786902 -2.7366842 0 0 Z M-17.13671875 10.3515625 C-18.84477149 13.03564538 -19.13671875 14.11325783 -19.13671875 17.3515625 C-12.53671875 17.3515625 -5.93671875 17.3515625 0.86328125 17.3515625 C0.43104078 10.86602502 0.43104078 10.86602502 -1.69921875 7.9140625 C-7.4177853 4.24831471 -12.70904406 5.66343636 -17.13671875 10.3515625 Z " fill="#FFFFFF" transform="translate(675.13671875,256.6484375)"/>
<path d="M0 0 C4.88478796 2.35193495 7.36061943 5.30776787 10 10 C11.19846087 13.54981561 11.12927475 16.97422177 11.1328125 20.69921875 C11.13410156 21.99021484 11.13539062 23.28121094 11.13671875 24.61132812 C11.13462402 25.2797876 11.1325293 25.94824707 11.13037109 26.63696289 C11.12499085 28.69099215 11.13034208 30.74480539 11.13671875 32.79882812 C11.13542969 34.08595703 11.13414063 35.37308594 11.1328125 36.69921875 C11.13168457 37.88346436 11.13055664 39.06770996 11.12939453 40.2878418 C11 43 11 43 10 44 C7.32941149 44.14115161 4.67567762 44.04247107 2 44 C1.98018066 43.17798096 1.96036133 42.35596191 1.93994141 41.5090332 C1.84455397 37.77653874 1.73492911 34.0445933 1.625 30.3125 C1.5940625 29.01892578 1.563125 27.72535156 1.53125 26.39257812 C1.49257812 25.14541016 1.45390625 23.89824219 1.4140625 22.61328125 C1.36693115 20.89298706 1.36693115 20.89298706 1.31884766 19.13793945 C0.87784766 14.79783769 0.1091036 11.9823489 -3.1875 9.0625 C-7.15863547 7.56229327 -9.17323712 8.2992165 -13 10 C-16.01415326 13.88986624 -16.40487839 16.9814787 -16.51171875 21.83203125 C-16.54716797 23.12431641 -16.58261719 24.41660156 -16.61914062 25.74804688 C-16.64223681 27.10285934 -16.66501935 28.45767718 -16.6875 29.8125 C-16.72069761 31.18688117 -16.75518953 32.56123171 -16.79101562 33.93554688 C-16.87341264 37.29028234 -16.94259395 40.64475904 -17 44 C-19.97 44 -22.94 44 -26 44 C-26 29.81 -26 15.62 -26 1 C-23.36 1 -20.72 1 -18 1 C-17.67 2.32 -17.34 3.64 -17 5 C-16.21625 4.360625 -15.4325 3.72125 -14.625 3.0625 C-9.91108604 -0.64128954 -5.86434608 -0.64056703 0 0 Z " fill="#FFFFFF" transform="translate(88,256)"/>
<path d="M0 0 C5.24733852 2.72589014 8.03516157 6.8164222 9.8671875 12.3125 C9.8671875 15.9425 9.8671875 19.5725 9.8671875 23.3125 C0.2971875 23.3125 -9.2728125 23.3125 -19.1328125 23.3125 C-16.09607303 31.59603759 -16.09607303 31.59603759 -13.0703125 34.375 C-6.70808394 36.40549848 0.40792078 35.70909821 6.8671875 34.3125 C7.3621875 37.7775 7.3621875 37.7775 7.8671875 41.3125 C1.04772074 44.62292076 -8.54385777 44.54824472 -15.81640625 42.58984375 C-20.80325613 40.26139022 -23.82705204 36.98079312 -26.2109375 32.109375 C-28.39464955 25.4842147 -28.45657064 16.11333544 -25.5078125 9.6875 C-19.94808612 0.61844278 -10.23654529 -3.29969226 0 0 Z M-17.1328125 11.3125 C-17.7928125 13.2925 -18.4528125 15.2725 -19.1328125 17.3125 C-12.2028125 17.3125 -5.2728125 17.3125 1.8671875 17.3125 C0.76198819 10.49325467 0.76198819 10.49325467 -4.1328125 6.3125 C-10.0527404 4.82952816 -13.48879137 6.38235377 -17.1328125 11.3125 Z " fill="#FFFFFF" transform="translate(208.1328125,256.6875)"/>
<path d="M0 0 C4.37482937 2.22718586 7.93633591 4.88625707 9.56811523 9.66308594 C10.17115593 12.92611905 10.11082027 16.07329319 10.09765625 19.390625 C10.0962413 20.09523865 10.09482635 20.79985229 10.09336853 21.52581787 C10.08778933 23.76725584 10.07524073 26.00859243 10.0625 28.25 C10.05748231 29.77343605 10.05291987 31.29687368 10.04882812 32.8203125 C10.03782674 36.54690772 10.02057646 40.27344396 10 44 C3.84765625 44.09765625 3.84765625 44.09765625 2 44 C0.13278213 42.13278213 0.82479592 38.97508776 0.7890625 36.48046875 C0.76098431 35.13475366 0.73231978 33.7890507 0.703125 32.44335938 C0.66191706 30.3169806 0.6250413 28.19082591 0.59863281 26.06420898 C0.57096313 24.01498254 0.52508379 21.96679353 0.4765625 19.91796875 C0.45674316 18.68844482 0.43692383 17.4589209 0.41650391 16.19213867 C-0.02624148 12.79888201 -0.6081829 11.39722845 -3 9 C-5.96518765 7.90756244 -7.56550047 7.8862025 -10.625 8.6875 C-14.34715234 10.74447892 -15.67359354 13.02078061 -17 17 C-17.15029988 19.06362991 -17.24844448 21.13123915 -17.31640625 23.19921875 C-17.35830078 24.40771484 -17.40019531 25.61621094 -17.44335938 26.86132812 C-17.48267578 28.12396484 -17.52199219 29.38660156 -17.5625 30.6875 C-17.60568359 31.96173828 -17.64886719 33.23597656 -17.69335938 34.54882812 C-17.7995486 37.69910852 -17.90159533 40.84946839 -18 44 C-20.64 44 -23.28 44 -26 44 C-26.33 29.81 -26.66 15.62 -27 1 C-24.36 1 -21.72 1 -19 1 C-18.34 1.99 -17.68 2.98 -17 4 C-16.05125 3.34 -15.1025 2.68 -14.125 2 C-9.52438241 -0.61292682 -5.17294472 -0.85362124 0 0 Z " fill="#FFFFFF" transform="translate(979,256)"/>
<path d="M0 0 C1.17175781 -0.020625 2.34351563 -0.04125 3.55078125 -0.0625 C14.32650393 -0.11142496 14.32650393 -0.11142496 19.125 3.25 C21.30124628 5.80472389 21.25431655 8.01908992 21.0625 11.25 C20.81905762 14.29006094 20.22979475 15.14598304 18.01977539 17.33959961 C14.4404699 19.70175407 12.29514934 19.77902791 8.03125 19.81640625 C7.02753357 19.82570412 7.02753357 19.82570412 6.00354004 19.83518982 C4.59498543 19.8422638 3.18634679 19.83915619 1.77783203 19.82641602 C-0.36973651 19.81253402 -2.51295434 19.8466598 -4.66015625 19.88476562 C-6.03385523 19.88571686 -7.40755962 19.88385777 -8.78125 19.87890625 C-10.02197266 19.87963135 -11.26269531 19.88035645 -12.54101562 19.88110352 C-16.74347994 19.08560189 -18.22137493 17.52862564 -20.875 14.25 C-21.71958006 11.48019708 -21.49524292 9.0666995 -20.875 6.25 C-18.16277462 1.69733597 -18.16277462 1.69733597 -15.10107422 0.63378906 C-10.13045874 -0.22317601 -5.02964556 0.02198752 0 0 Z " fill="#FFFFFF" transform="translate(408.875,95.75)"/>
<path d="M0 0 C1.77697266 -0.01836914 1.77697266 -0.01836914 3.58984375 -0.03710938 C4.73324219 -0.03904297 5.87664063 -0.04097656 7.0546875 -0.04296875 C8.09866699 -0.04707764 9.14264648 -0.05118652 10.21826172 -0.05541992 C14.12573698 0.2711329 17.00430406 1.18273813 19.9375 3.8125 C21.66470078 7.26690156 21.84808219 10.40103734 21.125 14.1875 C19.25484906 16.61869623 17.84361655 17.82819173 15.125 19.1875 C10.89735896 19.44539144 6.66590056 19.45851954 2.43139648 19.48266602 C0.33054948 19.49985234 -1.76871201 19.54373599 -3.86914062 19.58789062 C-5.21092595 19.59802052 -6.55272464 19.6065357 -7.89453125 19.61328125 C-9.72141479 19.63515503 -9.72141479 19.63515503 -11.58520508 19.6574707 C-15.48094342 19.10093665 -17.10500485 17.92494077 -19.875 15.1875 C-21.1001117 12.50960098 -21.26620722 10.09919948 -20.875 7.1875 C-16.32589048 -1.41142653 -8.47893619 0.00458321 0 0 Z " fill="#FFFFFF" transform="translate(1003.875,95.8125)"/>
<path d="M0 0 C2.09184223 0.00315256 4.18225913 -0.02027836 6.27392578 -0.0456543 C7.61116359 -0.04792827 8.94840518 -0.04863033 10.28564453 -0.04760742 C12.10298096 -0.05207886 12.10298096 -0.05207886 13.95703125 -0.05664062 C17.51144198 0.34757089 19.39236625 1.17875352 22.23095703 3.31567383 C23.80993756 6.47363489 24.05023874 9.92238019 23.23095703 13.31567383 C20.54929993 16.67334975 19.07317877 18.16123365 14.78930664 18.94677734 C13.50032471 18.94605225 12.21134277 18.94532715 10.88330078 18.94458008 C10.18958878 18.94699203 9.49587677 18.94940399 8.78114319 18.95188904 C7.32124081 18.9509135 5.8613001 18.93758957 4.40161133 18.91259766 C2.17092091 18.87821181 -0.05581983 18.89196586 -2.28662109 18.91137695 C-3.70916393 18.90447962 -5.1316966 18.89480823 -6.55419922 18.88208008 C-7.84205322 18.87120361 -9.12990723 18.86032715 -10.45678711 18.84912109 C-14.30288553 18.22969712 -15.48283177 17.41499158 -17.76904297 14.31567383 C-18.8419847 10.38155416 -19.18883818 8.26021305 -17.51904297 4.50317383 C-12.9045535 -1.264938 -6.71882763 -0.02123722 0 0 Z " fill="#FFFFFF" transform="translate(173.76904296875,204.684326171875)"/>
<path d="M0 0 C0 3.96 0 7.92 0 12 C3.3 12 6.6 12 10 12 C10 14.31 10 16.62 10 19 C6.7 19 3.4 19 0 19 C0.33 28.24 0.66 37.48 1 47 C3.64 47 6.28 47 9 47 C10 48 10 48 10.125 51 C10 54 10 54 9 55 C-1.48867565 56.12608481 -1.48867565 56.12608481 -6.1875 52.625 C-9.00638078 48.542483 -9.11926015 46.42983356 -9.09765625 41.4609375 C-9.09282227 39.50800781 -9.09282227 39.50800781 -9.08789062 37.515625 C-9.07953466 36.13541601 -9.07106971 34.75520768 -9.0625 33.375 C-9.05748501 31.98698074 -9.0529221 30.59895978 -9.04882812 29.2109375 C-9.03700976 25.80724868 -9.02053434 22.40364561 -9 19 C-11.31 19 -13.62 19 -16 19 C-16 16.69 -16 14.38 -16 12 C-13.69 12 -11.38 12 -9 12 C-9 8.7 -9 5.4 -9 2 C-3.375 0 -3.375 0 0 0 Z " fill="#FFFFFF" transform="translate(792,245)"/>
<path d="M0 0 C-0.33 2.31 -0.66 4.62 -1 7 C-1.78503906 6.89300781 -2.57007813 6.78601563 -3.37890625 6.67578125 C-9.85571532 5.93670979 -14.40530569 5.42891853 -20 9 C-23.49460674 12.96055431 -24.15895184 17.84289579 -24 23 C-23.01510425 26.93958299 -21.30578827 30.5206588 -18 33 C-12.41615387 34.86128204 -6.68852856 34.13770571 -1 33 C-0.505 36.465 -0.505 36.465 0 40 C-5.55535869 43.50717089 -12.70085775 42.53652 -19 42 C-24.39749853 40.51186702 -28.05108474 37.80563968 -31 33 C-34.1851919 26.71234845 -35.34955405 20.44772383 -33.2734375 13.60546875 C-30.42964467 6.63470828 -26.23287757 1.93932179 -19.3828125 -1.27734375 C-12.90506035 -3.24190793 -6.11560295 -2.79506533 0 0 Z " fill="#FFFFFF" transform="translate(1091,258)"/>
<path d="M0 0 C0 3.96 0 7.92 0 12 C3.3 12 6.6 12 10 12 C10 14.31 10 16.62 10 19 C6.7 19 3.4 19 0 19 C0.33 28.24 0.66 37.48 1 47 C3.97 47 6.94 47 10 47 C10 49.64 10 52.28 10 55 C8.10489301 55.08160748 6.20875496 55.13946459 4.3125 55.1875 C2.72888672 55.23970703 2.72888672 55.23970703 1.11328125 55.29296875 C-2.52948916 54.95017354 -4.2270552 54.39415374 -7 52 C-9.94227083 45.5780975 -9.22331058 38.49339559 -9.125 31.5625 C-9.11597656 30.35400391 -9.10695312 29.14550781 -9.09765625 27.90039062 C-9.07420168 24.93338722 -9.04137794 21.96679857 -9 19 C-10.98 19 -12.96 19 -15 19 C-15 16.69 -15 14.38 -15 12 C-13.02 12 -11.04 12 -9 12 C-9 8.7 -9 5.4 -9 2 C-3.375 0 -3.375 0 0 0 Z " fill="#FFFFFF" transform="translate(142,245)"/>
<path d="M0 0 C-0.66 2.31 -1.32 4.62 -2 7 C-2.80824219 6.90460938 -3.61648438 6.80921875 -4.44921875 6.7109375 C-5.51785156 6.60007812 -6.58648438 6.48921875 -7.6875 6.375 C-8.74324219 6.25898438 -9.79898438 6.14296875 -10.88671875 6.0234375 C-15.30359337 5.99018625 -17.92715766 7.07616354 -21.25 9.9375 C-25.11111843 14.48810386 -24.4478349 20.34401114 -24 26 C-22.64078916 29.62456225 -21.50781348 30.65752114 -18.3125 32.8125 C-12.81941055 34.78172075 -7.6650861 34.41627153 -2 33 C-1.34 35.31 -0.68 37.62 0 40 C-6.84065795 43.250618 -15.62602235 43.3476905 -22.83984375 41.125 C-29.20887372 37.90339416 -31.76430044 33.70709869 -34 27 C-34.52993598 20.12102333 -34.8714653 12.98083509 -31 7 C-22.91053329 -2.01805891 -11.34820184 -5.24724195 0 0 Z " fill="#FFFFFF" transform="translate(748,258)"/>
<path d="M0 0 C2.97 0 5.94 0 9 0 C9.02312764 7.93613787 9.04091723 15.87226176 9.05181217 23.80842495 C9.05704008 27.49314498 9.06413605 31.17784203 9.07543945 34.86254883 C9.08627162 38.41570831 9.09227753 41.96884563 9.09487724 45.52202034 C9.0967309 46.88045666 9.10035038 48.23889171 9.10573006 49.59731865 C9.11294475 51.49382223 9.11340809 53.39034793 9.11352539 55.28686523 C9.115746 56.36830307 9.11796661 57.44974091 9.12025452 58.56394958 C9 61 9 61 8 62 C5.36 62 2.72 62 0 62 C0 41.54 0 21.08 0 0 Z " fill="#FFFFFF" transform="translate(610,238)"/>
<path d="M0 0 C0 2.64 0 5.28 0 8 C-0.92232422 8.20302734 -0.92232422 8.20302734 -1.86328125 8.41015625 C-2.67152344 8.62542969 -3.47976563 8.84070313 -4.3125 9.0625 C-5.11300781 9.25972656 -5.91351562 9.45695312 -6.73828125 9.66015625 C-9.39821555 11.23590316 -10.37934672 12.78652843 -11.45239258 15.66625977 C-12.66468277 20.83268062 -12.58663169 26.15488228 -12.6875 31.4375 C-12.72166016 32.64599609 -12.75582031 33.85449219 -12.79101562 35.09960938 C-12.87309835 38.06631349 -12.94238015 41.03273676 -13 44 C-19.15234375 44.09765625 -19.15234375 44.09765625 -21 44 C-22 43 -22 43 -22.11352539 39.03100586 C-22.1133662 37.25894393 -22.10766785 35.4868774 -22.09765625 33.71484375 C-22.0962413 32.78402481 -22.09482635 31.85320587 -22.09336853 30.8941803 C-22.08775172 27.90858809 -22.0751964 24.92306971 -22.0625 21.9375 C-22.05748716 19.91862087 -22.05292388 17.89974057 -22.04882812 15.88085938 C-22.03777683 10.92054428 -22.02050095 5.96028468 -22 1 C-19.36 1 -16.72 1 -14 1 C-13.67 2.32 -13.34 3.64 -13 5 C-12.154375 4.175 -11.30875 3.35 -10.4375 2.5 C-7.03972892 -0.3787798 -4.43607134 -0.44360713 0 0 Z " fill="#FFFFFF" transform="translate(853,256)"/>
<path d="M0 0 C2.97 0 5.94 0 9 0 C9 14.19 9 28.38 9 43 C6.03 43 3.06 43 0 43 C0 28.81 0 14.62 0 0 Z " fill="#FFFFFF" transform="translate(1019,257)"/>
<path d="M0 0 C2.82610255 2.60871004 3.85436865 4.14441581 4.5 7.9375 C3.87263356 11.78011945 2.39792409 13.96733129 0 17 C-3.22878519 18.6143926 -6.50903682 18.5818272 -10 18 C-13.64184981 15.44295652 -14.77792202 13.77727291 -16 9.5 C-16 4.62538297 -14.36424612 2.36424612 -11 -1 C-7.06726244 -2.74788336 -3.85800928 -1.5156465 0 0 Z " fill="#FFFFFF" transform="translate(931,98)"/>
<path d="M0 0 C1.85345701 3.08909501 2.24933345 6.33840396 2.125 9.875 C0.55069236 13.49590756 -0.56382926 14.66755284 -3.875 16.875 C-10.76678947 17.65310526 -10.76678947 17.65310526 -14.8125 14.8125 C-17.28099406 11.29676604 -17.875 9.16116677 -17.875 4.875 C-16.33193404 1.56843009 -14.6327542 -1.34377591 -11.1875 -2.875 C-7.12563822 -3.31412019 -3.47468734 -2.0848124 0 0 Z " fill="#FFFFFF" transform="translate(259.875,99.125)"/>
<path d="M0 0 C1.66796875 1.01171875 1.66796875 1.01171875 3.16796875 2.76171875 C3.89287397 6.02379223 4.01903338 8.67660481 3.66796875 12.01171875 C1.8723447 14.76500896 0.61541953 16.53799336 -2.33203125 18.01171875 C-9.37447607 18.70441824 -9.37447607 18.70441824 -13.26953125 15.88671875 C-15.58461463 12.65963282 -16.33203125 10.97411721 -16.33203125 7.01171875 C-15.0157352 2.81602511 -13.85339402 1.34907113 -10.14453125 -1.05078125 C-5.84000892 -2.10927035 -3.93275795 -1.80283101 0 0 Z " fill="#FFFFFF" transform="translate(717.33203125,205.98828125)"/>
<path d="M0 0 C2.80227531 2.01032794 4.64716535 3.48127693 5.44921875 6.93359375 C5.65981518 10.77516313 5.23346553 12.63423734 3.125 15.9375 C0.43129792 18.55197555 -0.48486535 18.94056139 -4.25 19.375 C-9.13275687 18.88672431 -10.85859952 17.75435667 -14 14 C-14.8024572 10.83029408 -14.7816898 8.17274097 -14 5 C-9.90624191 -0.3108213 -6.48394364 -1.81550422 0 0 Z " fill="#FFFFFF" transform="translate(1059,97)"/>
<path d="M0 0 C3.4375 0.1875 3.4375 0.1875 4.4375 1.1875 C4.625 4.625 4.625 4.625 4.4375 8.1875 C2.4375 10.1875 2.4375 10.1875 -0.5625 10.5 C-1.5525 10.396875 -2.5425 10.29375 -3.5625 10.1875 C-5.71165785 6.96376323 -5.94536803 5.92046326 -5.5625 2.1875 C-3.5625 0.1875 -3.5625 0.1875 0 0 Z " fill="#FFFFFF" transform="translate(1023.5625,240.8125)"/>
</svg>
